<svg width="24" height="24" viewBox="0 0 24 24" fill="none" xmlns="http://www.w3.org/2000/svg">
<path d="M8.25 4.49955V2.24805C8.25 2.04913 8.32902 1.85837 8.46967 1.71772C8.61032 1.57706 8.80109 1.49805 9 1.49805H15C15.1989 1.49805 15.3897 1.57706 15.5303 1.71772C15.671 1.85837 15.75 2.04913 15.75 2.24805V4.49955H21.75C21.9489 4.49955 22.1397 4.57856 22.2803 4.71922C22.421 4.85987 22.5 5.05063 22.5 5.24955C22.5 5.44846 22.421 5.63922 22.2803 5.77988C22.1397 5.92053 21.9489 5.99955 21.75 5.99955H2.25C2.05109 5.99955 1.86032 5.92053 1.71967 5.77988C1.57902 5.63922 1.5 5.44846 1.5 5.24955C1.5 5.05063 1.57902 4.85987 1.71967 4.71922C1.86032 4.57856 2.05109 4.49955 2.25 4.49955H8.25ZM9.75 4.49955H14.25V2.99955H9.75V4.49955ZM4.5 22.4995C4.30109 22.4995 4.11032 22.4205 3.96967 22.2799C3.82902 22.1392 3.75 21.9485 3.75 21.7495V5.99955H20.25V21.7495C20.25 21.9485 20.171 22.1392 20.0303 22.2799C19.8897 22.4205 19.6989 22.4995 19.5 22.4995H4.5ZM9.75 17.9995C9.94891 17.9995 10.1397 17.9205 10.2803 17.7799C10.421 17.6392 10.5 17.4485 10.5 17.2495V9.74955C10.5 9.55063 10.421 9.35987 10.2803 9.21922C10.1397 9.07856 9.94891 8.99955 9.75 8.99955C9.55109 8.99955 9.36032 9.07856 9.21967 9.21922C9.07902 9.35987 9 9.55063 9 9.74955V17.2495C9 17.4485 9.07902 17.6392 9.21967 17.7799C9.36032 17.9205 9.55109 17.9995 9.75 17.9995ZM14.25 17.9995C14.4489 17.9995 14.6397 17.9205 14.7803 17.7799C14.921 17.6392 15 17.4485 15 17.2495V9.74955C15 9.55063 14.921 9.35987 14.7803 9.21922C14.6397 9.07856 14.4489 8.99955 14.25 8.99955C14.0511 8.99955 13.8603 9.07856 13.7197 9.21922C13.579 9.35987 13.5 9.55063 13.5 9.74955V17.2495C13.5 17.4485 13.579 17.6392 13.7197 17.7799C13.8603 17.9205 14.0511 17.9995 14.25 17.9995Z" fill="#A96965"/>
</svg>
