<svg width="54" height="54" viewBox="0 0 54 54" fill="none" xmlns="http://www.w3.org/2000/svg">
<circle cx="27" cy="27" r="27" fill="#1F2D2D"/>
<path d="M19.8039 19.9561H35.3583C36.8257 19.9561 37.5652 20.6487 37.5652 22.0574V31.9417C37.5652 33.3387 36.8257 34.043 35.3583 34.043H19.8039C18.3365 34.043 17.597 33.3387 17.597 31.9417V22.0574C17.597 20.6487 18.3365 19.9561 19.8039 19.9561ZM27.5752 30.0517L35.4874 23.56C35.7691 23.3252 35.9922 22.7852 35.64 22.3039C35.2996 21.8226 34.6774 21.8108 34.2665 22.1043L27.5752 26.6356L20.8957 22.1043C20.4848 21.8108 19.8626 21.8226 19.5222 22.3039C19.17 22.7852 19.393 23.3252 19.6748 23.56L27.5752 30.0517Z" fill="white"/>
</svg>
