<svg width="54" height="54" viewBox="0 0 54 54" fill="none" xmlns="http://www.w3.org/2000/svg">
<circle cx="27" cy="27" r="27" fill="#1F2D2D"/>
<g clip-path="url(#clip0_325_7199)">
<path d="M28.5041 26.9998C28.5041 30.6462 25.5399 33.603 21.8817 33.603C21.0134 33.6042 20.1534 33.4343 19.3507 33.1031C18.5481 32.7719 17.8185 32.2858 17.2037 31.6726C16.5889 31.0594 16.1009 30.3312 15.7675 29.5294C15.4342 28.7276 15.262 27.8681 15.2609 26.9998C15.2609 23.3518 18.225 20.3965 21.8817 20.3965C22.7502 20.3951 23.6104 20.5649 24.4132 20.896C25.216 21.2271 25.9457 21.7132 26.5607 22.3264C27.1757 22.9396 27.6638 23.6679 27.9972 24.4698C28.3307 25.2716 28.5029 26.1313 28.5041 26.9998ZM35.7677 26.9998C35.7677 30.4334 34.2856 33.2156 32.4572 33.2156C30.6289 33.2156 29.1468 30.432 29.1468 26.9998C29.1468 23.5661 30.6289 20.7839 32.4572 20.7839C34.2856 20.7839 35.7677 23.5675 35.7677 26.9998ZM38.7391 26.9998C38.7391 30.0754 38.2182 32.5685 37.574 32.5685C36.9313 32.5685 36.4104 30.0739 36.4104 26.9998C36.4104 23.9241 36.9313 21.431 37.5755 21.431C38.2182 21.431 38.7391 23.9241 38.7391 26.9998Z" fill="white"/>
</g>
<defs>
<clipPath id="clip0_325_7199">
<rect width="23.4783" height="23.4783" fill="white" transform="translate(15.2609 15.2607)"/>
</clipPath>
</defs>
</svg>
