<svg width="583" height="60" viewBox="0 0 583 60" fill="none" xmlns="http://www.w3.org/2000/svg">
<path d="M31.1819 0.856441C34.3915 0.823224 37.5524 1.64197 40.3423 3.22913C43.0887 4.77007 45.406 6.97376 47.0828 9.63942C48.7844 12.3736 49.6642 15.5392 49.6173 18.7593C49.6587 22.1007 48.7215 25.3811 46.9211 28.1961C45.1313 31.0022 42.6712 33.3187 39.7626 34.9367C36.7726 36.6052 33.3991 37.4649 29.9753 37.4308H8.99189V59.1691H0V0.856441H31.1819ZM29.3551 28.7489C31.2395 28.7784 33.0988 28.3136 34.7476 27.4008C36.333 26.5348 37.6787 25.2887 38.6639 23.7744C39.6311 22.2895 40.1377 20.5517 40.1199 18.7796C40.1355 17.1106 39.6262 15.4788 38.6639 14.1151C37.6534 12.6988 36.3079 11.5548 34.7476 10.7853C33.0756 9.94463 31.2264 9.51703 29.3551 9.53829H8.95141V28.7691H29.3551V28.7489Z" fill="white"/>
<path d="M122.2 18.9272C122.212 21.4982 121.626 24.0367 120.488 26.3419C119.35 28.6405 117.783 30.6998 115.87 32.4084C113.923 34.1622 111.625 35.4831 109.13 36.2842L125.307 59.2021L114.145 59.1213L99.0729 37.5514H80.9205V59.1213H71.9286V0.855837H103.407C106.648 0.835747 109.842 1.63816 112.689 3.18805C115.501 4.7028 117.881 6.90892 119.605 9.59833C121.361 12.3884 122.263 15.6311 122.2 18.9272ZM101.216 9.49046H80.8936V28.8966H101.877C103.783 28.9275 105.664 28.463 107.337 27.5485C108.925 26.6739 110.269 25.4156 111.246 23.8883C112.201 22.4126 112.707 20.6915 112.702 18.934C112.728 17.18 112.174 15.4667 111.125 14.0606C110.026 12.6141 108.579 11.4687 106.919 10.7308C105.129 9.91711 103.183 9.50305 101.216 9.51745V9.49046Z" fill="white"/>
<path d="M210.299 30.0023C210.331 34.0606 209.492 38.0785 207.839 41.7848C206.208 45.4091 203.841 48.6549 200.889 51.316C197.801 54.0928 194.212 56.2547 190.313 57.6858C181.622 60.7417 172.149 60.7417 163.459 57.6858C159.553 56.2689 155.961 54.1054 152.883 51.316C149.953 48.6533 147.613 45.4066 146.014 41.7848C144.418 38.057 143.595 34.044 143.595 29.9888C143.595 25.9336 144.418 21.9206 146.014 18.1928C147.615 14.57 149.954 11.3213 152.883 8.65489C155.965 5.87015 159.556 3.70725 163.459 2.28509C172.151 -0.761698 181.621 -0.761698 190.313 2.28509C194.209 3.72154 197.798 5.88288 200.889 8.65489C203.84 11.3198 206.206 14.5674 207.839 18.1928C209.498 21.9068 210.337 25.9348 210.299 30.0023ZM201.138 30.0023C201.195 26.1516 200.109 22.3705 198.018 19.1365C195.879 15.894 192.918 13.2772 189.437 11.5534C185.498 9.71981 181.207 8.76976 176.862 8.76976C172.518 8.76976 168.226 9.71981 164.288 11.5534C160.823 13.2664 157.888 15.8872 155.795 19.1365C153.806 22.4119 152.754 26.1704 152.754 30.0023C152.754 33.8342 153.806 37.5926 155.795 40.8681C157.886 44.1172 160.822 46.7361 164.288 48.4445C168.225 50.2825 172.517 51.2351 176.862 51.2351C181.207 51.2351 185.5 50.2825 189.437 48.4445C192.927 46.7187 195.89 44.0883 198.018 40.8276C200.098 37.6036 201.183 33.8388 201.138 30.0023Z" fill="white"/>
<path d="M233.696 41.2458C236.394 44.3829 239.603 47.0423 243.186 49.1121C246.516 50.9725 250.56 51.9027 255.319 51.9027C257.838 51.905 260.345 51.5695 262.774 50.9051C264.954 50.3539 266.986 49.3298 268.726 47.9055C269.473 47.2892 270.071 46.5119 270.475 45.6317C270.879 44.7515 271.078 43.7914 271.058 42.8232C271.058 40.0528 269.515 38.1047 266.434 36.9993C263.354 35.8938 259.02 34.9771 253.405 34.1682C249.296 33.6836 245.266 32.6756 241.413 31.1687C238.362 30.0186 235.653 28.1121 233.54 25.628C231.631 23.1713 230.644 20.123 230.75 17.0135C230.673 13.6772 231.83 10.4299 233.999 7.89349C236.37 5.22906 239.388 3.2209 242.762 2.06289C246.703 0.665621 250.862 -0.0191098 255.043 0.0407168C260.534 0.0407168 265.309 0.928274 269.367 2.70329C273.192 4.3021 276.504 6.92335 278.938 10.2797L272.872 16.7776C270.83 14.1851 268.262 12.0553 265.336 10.5291C262.08 8.86469 258.462 8.03549 254.807 8.11598C250.695 8.11598 247.253 8.82368 244.48 10.2392C241.708 11.6547 240.319 13.6387 240.315 16.1912C240.269 17.1027 240.427 18.0129 240.776 18.8559C241.126 19.6988 241.659 20.4533 242.337 21.0646C243.992 22.406 245.927 23.3596 247.999 23.8552C250.804 24.5987 253.654 25.1549 256.533 25.5201C259.638 25.9695 262.622 26.5244 265.484 27.185C268.154 27.7827 270.741 28.7041 273.188 29.9284C275.317 30.981 277.165 32.5243 278.581 34.4311C279.98 36.4571 280.689 38.8797 280.603 41.3402C280.678 44.8835 279.581 48.3525 277.482 51.2084C275.185 54.1706 272.095 56.4212 268.571 57.6995C264.218 59.315 259.598 60.0926 254.955 59.9914C249.769 60.0646 244.615 59.1614 239.762 57.3289C235.126 55.4697 231.021 52.4943 227.811 48.6672L233.696 41.2458Z" fill="white"/>
<path d="M334.035 0.856299C337.245 0.825654 340.405 1.64423 343.196 3.22899C345.928 4.77533 348.23 6.97859 349.896 9.63928C351.6 12.3729 352.482 15.5385 352.437 18.7592C352.482 22.1009 351.544 25.3822 349.741 28.196C347.953 31.0036 345.492 33.3204 342.582 34.9366C339.595 36.6042 336.223 37.4639 332.802 37.4306H311.812V59.1689H302.82V0.856299H334.035ZM332.202 28.7488C334.043 28.7578 335.857 28.3054 337.479 27.4329C339.1 26.5604 340.477 25.2956 341.484 23.754C342.453 22.2697 342.962 20.5319 342.946 18.7592C342.96 17.0894 342.448 15.4577 341.484 14.0948C340.476 12.6788 339.133 11.5347 337.574 10.7649C335.902 9.92524 334.053 9.49769 332.182 9.51791H311.778V28.7488H332.202Z" fill="white"/>
<path d="M374.755 0.856445H419.884V9.51806H383.747V24.9202H415.28V33.6156H383.72V50.467H419.857V59.1286H374.729L374.755 0.856445Z" fill="white"/>
<path d="M494.664 18.9272C494.676 21.4982 494.09 24.0367 492.951 26.3419C491.814 28.6405 490.247 30.6998 488.334 32.4084C486.385 34.1607 484.088 35.4815 481.593 36.2842L497.771 59.2021L486.609 59.1213L471.537 37.5514H453.384V59.1213H444.392V0.855837H475.871C479.112 0.835747 482.306 1.63816 485.153 3.18805C487.965 4.7028 490.345 6.90892 492.068 9.59833C493.825 12.3884 494.727 15.6311 494.664 18.9272ZM473.673 9.49046H453.357V28.8966H474.341C476.247 28.9275 478.128 28.463 479.801 27.5485C481.389 26.6739 482.733 25.4156 483.71 23.8883C484.665 22.4126 485.17 20.6915 485.166 18.934C485.192 17.18 484.638 15.4667 483.589 14.0606C482.49 12.6141 481.043 11.4687 479.383 10.7308C477.59 9.91636 475.642 9.50228 473.673 9.51745V9.49046Z" fill="white"/>
<path d="M582.762 30.0023C582.795 34.0606 581.956 38.0785 580.302 41.7848C578.671 45.4091 576.305 48.6549 573.353 51.316C570.265 54.0928 566.675 56.2547 562.777 57.6858C554.086 60.7417 544.613 60.7417 535.922 57.6858C532.017 56.2689 528.425 54.1054 525.346 51.316C522.416 48.6533 520.077 45.4066 518.478 41.7848C516.882 38.057 516.058 34.044 516.058 29.9888C516.058 25.9336 516.882 21.9206 518.478 18.1928C520.078 14.57 522.418 11.3213 525.346 8.65489C528.428 5.87015 532.019 3.70725 535.922 2.28509C544.614 -0.761698 554.084 -0.761698 562.777 2.28509C566.673 3.72154 570.261 5.88288 573.353 8.65489C576.303 11.3198 578.67 14.5674 580.302 18.1928C581.961 21.9068 582.8 25.9348 582.762 30.0023ZM573.602 30.0023C573.658 26.1516 572.572 22.3705 570.481 19.1365C568.341 15.8955 565.38 13.2791 561.9 11.5534C557.962 9.71981 553.67 8.76976 549.326 8.76976C544.981 8.76976 540.69 9.71981 536.751 11.5534C533.286 13.2664 530.351 15.8872 528.258 19.1365C526.269 22.4119 525.218 26.1704 525.218 30.0023C525.218 33.8342 526.269 37.5926 528.258 40.8681C530.35 44.1172 533.285 46.7361 536.751 48.4445C540.688 50.2825 544.981 51.2351 549.326 51.2351C553.671 51.2351 557.963 50.2825 561.9 48.4445C565.389 46.7168 568.352 44.0868 570.481 40.8276C572.561 37.6036 573.647 33.8388 573.602 30.0023Z" fill="white"/>
</svg>
