<svg width="46" height="44" viewBox="0 0 46 44" fill="none" xmlns="http://www.w3.org/2000/svg">
<rect width="46" height="44" fill="#2D3035"/>
<g clip-path="url(#clip0_903_2556)">
<path d="M10.2002 10V32.6667C10.2002 33.0203 10.3407 33.3594 10.5907 33.6095C10.8408 33.8595 11.1799 34 11.5335 34H34.2002V31.3333H12.8669V10H10.2002Z" fill="white"/>
<path d="M26.591 25.6096C26.7147 25.7335 26.8616 25.8319 27.0234 25.8989C27.1851 25.966 27.3585 26.0006 27.5337 26.0006C27.7088 26.0006 27.8822 25.966 28.0439 25.8989C28.2057 25.8319 28.3526 25.7335 28.4763 25.6096L35.143 18.9429L33.2577 17.0576L27.5337 22.7816L24.4763 19.7243C24.3526 19.6004 24.2057 19.502 24.0439 19.435C23.8822 19.3679 23.7088 19.3333 23.5337 19.3333C23.3585 19.3333 23.1851 19.3679 23.0234 19.435C22.8616 19.502 22.7147 19.6004 22.591 19.7243L15.9243 26.391L17.8096 28.2763L23.5337 22.5523L26.591 25.6096Z" fill="white"/>
</g>
<defs>
<clipPath id="clip0_903_2556">
<rect width="25.6" height="24" fill="white" transform="translate(10.2002 10)"/>
</clipPath>
</defs>
</svg>
