<svg width="54" height="54" viewBox="0 0 54 54" fill="none" xmlns="http://www.w3.org/2000/svg">
<circle cx="27" cy="27" r="27" fill="#1F2D2D"/>
<g clip-path="url(#clip0_325_7194)">
<path d="M38.3899 20.0902C37.573 20.4521 36.6955 20.6967 35.773 20.8072C36.7249 20.2377 37.437 19.3413 37.7765 18.2853C36.8822 18.8165 35.9035 19.1904 34.8828 19.3907C34.1964 18.6579 33.2873 18.1721 32.2966 18.0089C31.3059 17.8457 30.289 18.0141 29.4038 18.488C28.5186 18.9619 27.8147 19.7149 27.4012 20.6299C26.9878 21.5449 26.888 22.5708 27.1174 23.5483C25.3053 23.4573 23.5327 22.9864 21.9144 22.1659C20.2962 21.3455 18.8685 20.194 17.7241 18.7861C17.3328 19.4611 17.1078 20.2437 17.1078 21.0772C17.1074 21.8275 17.2922 22.5664 17.6457 23.2282C17.9993 23.8899 18.5108 24.4542 19.1348 24.8709C18.4111 24.8479 17.7035 24.6524 17.0706 24.3006V24.3593C17.0706 25.4116 17.4346 26.4316 18.1009 27.2461C18.7673 28.0607 19.6949 28.6195 20.7264 28.828C20.0551 29.0097 19.3513 29.0364 18.6681 28.9062C18.9592 29.8117 19.5261 30.6036 20.2895 31.1708C21.0529 31.7381 21.9746 32.0525 22.9255 32.0699C21.3112 33.3372 19.3176 34.0246 17.2653 34.0216C16.9018 34.0217 16.5385 34.0004 16.1775 33.958C18.2607 35.2974 20.6856 36.0082 23.1623 36.0055C31.546 36.0055 36.1291 29.0618 36.1291 23.0396C36.1291 22.844 36.1242 22.6464 36.1154 22.4507C37.0069 21.806 37.7764 21.0077 38.3879 20.0931L38.3899 20.0902Z" fill="white"/>
</g>
<defs>
<clipPath id="clip0_325_7194">
<rect width="23.4783" height="23.4783" fill="white" transform="translate(15.2609 15.2607)"/>
</clipPath>
</defs>
</svg>
